<svg width="24" height="24" viewBox="0 0 24 24" fill="none" xmlns="http://www.w3.org/2000/svg">
<path d="M20.9745 15.5556C20.3716 17.2239 19.3532 18.7145 18.0016 19.9069C16.65 21.0993 15.0032 21.9599 13.1946 22.419C11.3859 22.8782 9.46624 22.923 7.59097 22.5498C5.71569 22.1767 3.93751 21.396 2.40039 20.2711C4.97426 20.4397 7.49625 19.8308 9.59949 18.533C11.7027 17.2351 13.2775 15.316 14.0948 13.0549C14.912 10.7937 14.9291 8.30839 14.1435 5.96047C13.358 3.61255 11.8107 1.52449 9.72689 3.05176e-05C11.6258 0.124072 13.4897 0.667342 15.1679 1.58586C16.8461 2.50438 18.2913 3.77233 19.3865 5.28705C20.4818 6.80178 21.1962 8.52071 21.4721 10.3047C21.748 12.0886 21.5775 13.8875 20.9745 15.5556Z" fill="#121212"/>
</svg>
